<svg width="40" height="40" viewBox="0 0 40 40" fill="none" xmlns="http://www.w3.org/2000/svg">
<g clip-path="url(#clip0_6007_3068)">
<path d="M22.4233 39.8556C32.3267 38.6567 40 30.2244 40 20C40 8.95444 31.0456 0 20 0C8.95444 0 0 8.95444 0 20C0 29.38 6.45667 37.2511 15.1689 39.4122L15.5556 37.7778H21.6667L22.4233 39.8556Z" fill="#0866FF"/>
<path d="M15.1678 39.4122V26.1122H11.04V19.9999H15.1678V17.3666C15.1678 10.5588 18.2478 7.40662 24.9278 7.40662C26.1923 7.40662 28.3756 7.65439 29.2723 7.90217V13.4388C28.8 13.3911 27.9756 13.3666 26.96 13.3666C23.68 13.3666 22.4156 14.6066 22.4156 17.8388V19.9999H28.9523L27.8323 26.1111H22.4245V39.8555C19.9991 40.1476 17.5408 39.9974 15.1689 39.4122H15.1678Z" fill="white"/>
</g>
<defs>
<clipPath id="clip0_6007_3068">
<rect width="40" height="40" fill="white"/>
</clipPath>
</defs>
</svg>
